<mxfile host="app.diagrams.net" modified="2020-10-27T16:07:19.812Z" agent="5.0 (Windows NT 10.0; Win64; x64) AppleWebKit/537.36 (KHTML, like Gecko) Chrome/86.0.4240.111 Safari/537.36" etag="RnMBRxb-5DEI5M_RMqY-" version="13.8.5" type="github">
  <diagram id="C5RBs43oDa-KdzZeNtuy" name="Page-1">
    <mxGraphModel dx="868" dy="492" grid="1" gridSize="10" guides="1" tooltips="1" connect="1" arrows="1" fold="1" page="1" pageScale="1" pageWidth="827" pageHeight="1169" math="0" shadow="0">
      <root>
        <mxCell id="WIyWlLk6GJQsqaUBKTNV-0" />
        <mxCell id="WIyWlLk6GJQsqaUBKTNV-1" parent="WIyWlLk6GJQsqaUBKTNV-0" />
        <object label="START" placeholders="1" text="START" id="p4rbbkV2eQOE9EX-nILp-1">
          <mxCell style="ellipse;whiteSpace=wrap;html=1;aspect=fixed;" vertex="1" parent="WIyWlLk6GJQsqaUBKTNV-1">
            <mxGeometry x="110" y="24" width="60" height="60" as="geometry" />
          </mxCell>
        </object>
        <mxCell id="p4rbbkV2eQOE9EX-nILp-30" style="edgeStyle=orthogonalEdgeStyle;rounded=0;orthogonalLoop=1;jettySize=auto;html=1;" edge="1" parent="WIyWlLk6GJQsqaUBKTNV-1" source="p4rbbkV2eQOE9EX-nILp-2" target="p4rbbkV2eQOE9EX-nILp-3">
          <mxGeometry relative="1" as="geometry" />
        </mxCell>
        <mxCell id="p4rbbkV2eQOE9EX-nILp-32" style="edgeStyle=orthogonalEdgeStyle;rounded=0;orthogonalLoop=1;jettySize=auto;html=1;entryX=1;entryY=0.5;entryDx=0;entryDy=0;" edge="1" parent="WIyWlLk6GJQsqaUBKTNV-1" source="p4rbbkV2eQOE9EX-nILp-2" target="p4rbbkV2eQOE9EX-nILp-10">
          <mxGeometry relative="1" as="geometry">
            <Array as="points">
              <mxPoint x="590" y="55" />
              <mxPoint x="590" y="407" />
            </Array>
          </mxGeometry>
        </mxCell>
        <mxCell id="p4rbbkV2eQOE9EX-nILp-2" value="Check &lt;br&gt;Token" style="rhombus;whiteSpace=wrap;html=1;" vertex="1" parent="WIyWlLk6GJQsqaUBKTNV-1">
          <mxGeometry x="400" y="15" width="80" height="80" as="geometry" />
        </mxCell>
        <mxCell id="p4rbbkV2eQOE9EX-nILp-35" style="edgeStyle=orthogonalEdgeStyle;rounded=0;orthogonalLoop=1;jettySize=auto;html=1;entryX=1;entryY=0.5;entryDx=0;entryDy=0;" edge="1" parent="WIyWlLk6GJQsqaUBKTNV-1" source="p4rbbkV2eQOE9EX-nILp-3" target="p4rbbkV2eQOE9EX-nILp-27">
          <mxGeometry relative="1" as="geometry" />
        </mxCell>
        <mxCell id="p4rbbkV2eQOE9EX-nILp-37" style="edgeStyle=orthogonalEdgeStyle;rounded=0;orthogonalLoop=1;jettySize=auto;html=1;entryX=0.5;entryY=0;entryDx=0;entryDy=0;" edge="1" parent="WIyWlLk6GJQsqaUBKTNV-1" source="p4rbbkV2eQOE9EX-nILp-3" target="p4rbbkV2eQOE9EX-nILp-10">
          <mxGeometry relative="1" as="geometry" />
        </mxCell>
        <mxCell id="p4rbbkV2eQOE9EX-nILp-3" value="Expired?" style="rhombus;whiteSpace=wrap;html=1;" vertex="1" parent="WIyWlLk6GJQsqaUBKTNV-1">
          <mxGeometry x="400" y="161" width="80" height="80" as="geometry" />
        </mxCell>
        <mxCell id="p4rbbkV2eQOE9EX-nILp-4" value="Login Screen" style="rounded=1;whiteSpace=wrap;html=1;" vertex="1" parent="WIyWlLk6GJQsqaUBKTNV-1">
          <mxGeometry x="400" y="495" width="80" height="40" as="geometry" />
        </mxCell>
        <mxCell id="p4rbbkV2eQOE9EX-nILp-6" value="" style="endArrow=classic;html=1;exitX=1;exitY=0.5;exitDx=0;exitDy=0;entryX=0;entryY=0.5;entryDx=0;entryDy=0;" edge="1" parent="WIyWlLk6GJQsqaUBKTNV-1" source="p4rbbkV2eQOE9EX-nILp-1" target="p4rbbkV2eQOE9EX-nILp-2">
          <mxGeometry width="50" height="50" relative="1" as="geometry">
            <mxPoint x="390" y="270" as="sourcePoint" />
            <mxPoint x="440" y="220" as="targetPoint" />
          </mxGeometry>
        </mxCell>
        <mxCell id="p4rbbkV2eQOE9EX-nILp-8" value="/api/authenticate" style="text;html=1;strokeColor=none;fillColor=none;align=center;verticalAlign=middle;whiteSpace=wrap;rounded=0;" vertex="1" parent="WIyWlLk6GJQsqaUBKTNV-1">
          <mxGeometry x="420" y="171" width="40" height="20" as="geometry" />
        </mxCell>
        <mxCell id="p4rbbkV2eQOE9EX-nILp-18" style="edgeStyle=orthogonalEdgeStyle;rounded=0;orthogonalLoop=1;jettySize=auto;html=1;entryX=0.5;entryY=0;entryDx=0;entryDy=0;" edge="1" parent="WIyWlLk6GJQsqaUBKTNV-1" source="p4rbbkV2eQOE9EX-nILp-10" target="p4rbbkV2eQOE9EX-nILp-4">
          <mxGeometry relative="1" as="geometry" />
        </mxCell>
        <mxCell id="p4rbbkV2eQOE9EX-nILp-21" style="edgeStyle=orthogonalEdgeStyle;rounded=0;orthogonalLoop=1;jettySize=auto;html=1;" edge="1" parent="WIyWlLk6GJQsqaUBKTNV-1" source="p4rbbkV2eQOE9EX-nILp-10" target="p4rbbkV2eQOE9EX-nILp-20">
          <mxGeometry relative="1" as="geometry" />
        </mxCell>
        <mxCell id="p4rbbkV2eQOE9EX-nILp-10" value="Get Creds&lt;br&gt;(Keystore)" style="rhombus;whiteSpace=wrap;html=1;" vertex="1" parent="WIyWlLk6GJQsqaUBKTNV-1">
          <mxGeometry x="400" y="367" width="80" height="80" as="geometry" />
        </mxCell>
        <mxCell id="p4rbbkV2eQOE9EX-nILp-12" value="YES" style="text;html=1;strokeColor=none;fillColor=none;align=center;verticalAlign=middle;whiteSpace=wrap;rounded=0;" vertex="1" parent="WIyWlLk6GJQsqaUBKTNV-1">
          <mxGeometry x="430" y="110" width="40" height="20" as="geometry" />
        </mxCell>
        <mxCell id="p4rbbkV2eQOE9EX-nILp-17" value="NO" style="text;html=1;strokeColor=none;fillColor=none;align=center;verticalAlign=middle;whiteSpace=wrap;rounded=0;" vertex="1" parent="WIyWlLk6GJQsqaUBKTNV-1">
          <mxGeometry x="520" y="37" width="40" height="20" as="geometry" />
        </mxCell>
        <mxCell id="p4rbbkV2eQOE9EX-nILp-19" value="NO" style="text;html=1;strokeColor=none;fillColor=none;align=center;verticalAlign=middle;whiteSpace=wrap;rounded=0;" vertex="1" parent="WIyWlLk6GJQsqaUBKTNV-1">
          <mxGeometry x="430" y="463" width="40" height="20" as="geometry" />
        </mxCell>
        <mxCell id="p4rbbkV2eQOE9EX-nILp-25" style="edgeStyle=orthogonalEdgeStyle;rounded=0;orthogonalLoop=1;jettySize=auto;html=1;entryX=1;entryY=0.5;entryDx=0;entryDy=0;" edge="1" parent="WIyWlLk6GJQsqaUBKTNV-1" source="p4rbbkV2eQOE9EX-nILp-20" target="p4rbbkV2eQOE9EX-nILp-23">
          <mxGeometry relative="1" as="geometry" />
        </mxCell>
        <mxCell id="p4rbbkV2eQOE9EX-nILp-20" value="/api/login" style="rounded=0;whiteSpace=wrap;html=1;" vertex="1" parent="WIyWlLk6GJQsqaUBKTNV-1">
          <mxGeometry x="250" y="391" width="80" height="32" as="geometry" />
        </mxCell>
        <mxCell id="p4rbbkV2eQOE9EX-nILp-22" value="YES" style="text;html=1;strokeColor=none;fillColor=none;align=center;verticalAlign=middle;whiteSpace=wrap;rounded=0;" vertex="1" parent="WIyWlLk6GJQsqaUBKTNV-1">
          <mxGeometry x="345" y="390" width="40" height="20" as="geometry" />
        </mxCell>
        <mxCell id="p4rbbkV2eQOE9EX-nILp-24" style="edgeStyle=orthogonalEdgeStyle;rounded=0;orthogonalLoop=1;jettySize=auto;html=1;entryX=0;entryY=0.75;entryDx=0;entryDy=0;" edge="1" parent="WIyWlLk6GJQsqaUBKTNV-1" source="p4rbbkV2eQOE9EX-nILp-23" target="p4rbbkV2eQOE9EX-nILp-4">
          <mxGeometry relative="1" as="geometry">
            <Array as="points">
              <mxPoint x="160" y="525" />
            </Array>
          </mxGeometry>
        </mxCell>
        <mxCell id="p4rbbkV2eQOE9EX-nILp-40" style="edgeStyle=orthogonalEdgeStyle;rounded=0;orthogonalLoop=1;jettySize=auto;html=1;entryX=0.5;entryY=1;entryDx=0;entryDy=0;" edge="1" parent="WIyWlLk6GJQsqaUBKTNV-1" source="p4rbbkV2eQOE9EX-nILp-23" target="p4rbbkV2eQOE9EX-nILp-39">
          <mxGeometry relative="1" as="geometry" />
        </mxCell>
        <mxCell id="p4rbbkV2eQOE9EX-nILp-23" value="SUCCESS" style="rhombus;whiteSpace=wrap;html=1;" vertex="1" parent="WIyWlLk6GJQsqaUBKTNV-1">
          <mxGeometry x="120" y="367" width="80" height="80" as="geometry" />
        </mxCell>
        <mxCell id="p4rbbkV2eQOE9EX-nILp-26" value="NO" style="text;html=1;strokeColor=none;fillColor=none;align=center;verticalAlign=middle;whiteSpace=wrap;rounded=0;" vertex="1" parent="WIyWlLk6GJQsqaUBKTNV-1">
          <mxGeometry x="150" y="483" width="40" height="20" as="geometry" />
        </mxCell>
        <mxCell id="p4rbbkV2eQOE9EX-nILp-27" value="HOME SCRN" style="rounded=0;whiteSpace=wrap;html=1;" vertex="1" parent="WIyWlLk6GJQsqaUBKTNV-1">
          <mxGeometry x="117" y="182" width="86" height="38" as="geometry" />
        </mxCell>
        <mxCell id="p4rbbkV2eQOE9EX-nILp-36" value="NO" style="text;html=1;strokeColor=none;fillColor=none;align=center;verticalAlign=middle;whiteSpace=wrap;rounded=0;" vertex="1" parent="WIyWlLk6GJQsqaUBKTNV-1">
          <mxGeometry x="290" y="180" width="40" height="20" as="geometry" />
        </mxCell>
        <mxCell id="p4rbbkV2eQOE9EX-nILp-38" value="YES" style="text;html=1;strokeColor=none;fillColor=none;align=center;verticalAlign=middle;whiteSpace=wrap;rounded=0;" vertex="1" parent="WIyWlLk6GJQsqaUBKTNV-1">
          <mxGeometry x="430" y="291" width="40" height="20" as="geometry" />
        </mxCell>
        <mxCell id="p4rbbkV2eQOE9EX-nILp-41" style="edgeStyle=orthogonalEdgeStyle;rounded=0;orthogonalLoop=1;jettySize=auto;html=1;entryX=0.5;entryY=1;entryDx=0;entryDy=0;" edge="1" parent="WIyWlLk6GJQsqaUBKTNV-1" source="p4rbbkV2eQOE9EX-nILp-39" target="p4rbbkV2eQOE9EX-nILp-27">
          <mxGeometry relative="1" as="geometry" />
        </mxCell>
        <mxCell id="p4rbbkV2eQOE9EX-nILp-39" value="STORE Cred, Token" style="rounded=0;whiteSpace=wrap;html=1;" vertex="1" parent="WIyWlLk6GJQsqaUBKTNV-1">
          <mxGeometry x="110" y="276" width="100" height="29" as="geometry" />
        </mxCell>
      </root>
    </mxGraphModel>
  </diagram>
</mxfile>
